<svg width="151" height="151" viewBox="0 0 151 151" fill="none" xmlns="http://www.w3.org/2000/svg">
<path d="M1.91993 145.721C6.61814 144.447 14.0001 144.447 23.2284 144.629C37.9934 144.993 58.4629 145.358 78.5969 139.533L87.9927 136.802L142.187 122.969C143.194 122.423 145.375 121.877 146.046 121.331C146.046 120.967 145.878 120.239 145.542 118.964C143.697 111.865 133.63 112.23 131.113 112.957H130.778L102.926 117.69C102.758 117.871 102.758 118.053 102.59 118.418C100.913 121.148 97.7245 121.694 94.5365 122.058L69.2012 127.519H69.0335C68.0269 127.701 62.8258 128.247 56.785 128.247C50.2413 128.247 42.8587 127.519 38.4966 124.606C37.3224 123.878 36.9864 122.058 37.6577 120.784C38.329 119.51 40.0068 119.146 41.181 119.874C46.8858 123.696 62.4895 122.604 68.3619 121.876L93.6972 116.416C95.2074 116.234 98.0595 115.687 98.3954 115.142C98.3954 114.96 98.899 114.232 98.0601 110.773C97.2212 107.133 92.3553 103.856 85.1411 104.766L67.0205 108.589L66.5169 108.407C66.1815 108.225 27.9267 96.3935 4.10145 116.234C2.92719 117.144 1.41706 116.962 0.578143 115.687C-0.260774 114.414 -0.0931077 112.775 1.08171 111.865C11.82 102.946 26.7526 98.5775 44.3698 99.3057C55.947 99.852 64.8394 102.218 67.1884 102.946L84.1345 99.3057H84.3022C94.5368 98.0319 101.416 103.31 102.758 109.317C102.926 110.045 103.094 110.955 103.262 111.865L129.772 107.497C135.811 106.041 147.891 107.315 150.408 117.69C150.911 119.874 151.582 122.604 150.072 124.789C148.898 126.427 146.717 127.155 143.529 128.066L89.1668 141.899L79.7711 144.629C58.7981 150.636 38.1608 150.271 23.0603 149.908C14.1675 149.726 7.12086 149.544 3.09406 150.818C2.92639 150.818 2.59049 151 2.42281 151C1.24855 151 0.241347 150.272 0.0737039 148.998C-0.261094 147.541 0.577823 146.086 1.91974 145.721L1.91993 145.721Z" fill="white"/>
<path d="M51.1057 2.03278C51.4392 0.754133 52.6076 -0.159302 53.7753 0.0232445C54.4428 0.0232445 70.2943 2.03278 80.6395 20.6683C83.9767 17.7452 90.3176 13.7254 99.9951 16.1008C100.996 16.2833 101.83 17.1968 101.83 18.4762C104.334 38.7558 88.3156 58.4858 80.8063 66.3418C80.1387 68.1688 79.4712 69.4474 79.1377 70.1784C78.9709 76.3903 78.3034 80.4093 78.1366 80.9577C77.9699 82.2364 76.8015 83.1498 75.6338 83.1498H75.1329C73.7979 82.9673 72.7968 81.5054 73.1309 80.0442C73.1309 79.8617 73.6317 76.3903 73.9652 70.9093C71.1289 67.6204 60.2831 54.101 54.6096 42.2255C45.9327 23.2248 50.9384 2.94521 51.1052 2.03172L51.1057 2.03278ZM96.9918 21.2162C89.4832 19.9375 84.8109 23.7741 82.9757 25.7837C83.81 27.9758 84.4776 30.1686 84.9777 32.3607C85.4785 31.2646 86.1455 30.3512 86.4796 29.6202C87.3139 28.3416 88.8158 28.1584 89.9835 28.8893C91.1513 29.8028 91.3186 31.4472 90.651 32.7258C89.4832 34.5528 87.8147 37.8417 85.9787 43.6878C85.9787 43.8703 85.812 43.8703 85.812 43.8703C85.6452 47.3418 85.1444 50.6299 84.6442 53.5537C90.9851 45.1497 97.8262 33.2741 96.9919 21.2159L96.9918 21.2162ZM73.9653 62.5062C73.4645 50.8133 70.9616 35.284 62.1185 22.6778C61.2842 21.3991 61.4509 19.7548 62.6193 18.8413C63.7871 17.9278 65.2889 18.1103 66.1232 19.3896C74.4661 31.4476 77.6366 45.3329 78.8043 56.8429C81.1405 48.4389 82.8091 36.746 77.8033 26.3322C70.7955 11.5337 60.1162 7.14875 55.4442 5.86986C54.4432 11.5334 52.9413 26.1495 59.1148 39.6692C62.9528 47.8901 69.6272 57.0256 73.9652 62.5066L73.9653 62.5062Z" fill="white"/>
</svg>
