<svg width="328" height="80" viewBox="0 0 328 80" fill="none" xmlns="http://www.w3.org/2000/svg">
<path fill-rule="evenodd" clip-rule="evenodd" d="M106.786 26.3477L100.707 44.2453H100.549L94.1952 26.3477H84.6016V54.2581H90.952L90.7936 34.5077H90.912L97.968 54.2581H102.698L109.952 34.5077H110.07L109.912 54.2581H116.534V26.3477H106.786Z" fill="black"/>
<path fill-rule="evenodd" clip-rule="evenodd" d="M123.234 26.3477V54.2581H142.708V48.5029H129.738V42.7093H141.329V37.3093H129.738V32.0245H141.999V26.3477H123.234Z" fill="black"/>
<path fill-rule="evenodd" clip-rule="evenodd" d="M146.168 26.3486V32.1038H154.053V54.2574H160.794V32.1038H168.678V26.3486H146.168Z" fill="black"/>
<path fill-rule="evenodd" clip-rule="evenodd" d="M188.078 54.2581L182.018 43.1813H179.721V54.2581H173.137V26.3477H183.78C185.121 26.3477 186.428 26.4869 187.703 26.7621C188.977 27.0389 190.121 27.5045 191.134 28.1621C192.145 28.8197 192.953 29.6869 193.558 30.7637C194.161 31.8421 194.463 33.1813 194.463 34.7845C194.463 36.6773 193.951 38.2677 192.927 39.5541C191.902 40.8421 190.482 41.7621 188.67 42.3141L195.962 54.2581H188.078ZM187.803 34.9023C187.803 34.2447 187.664 33.7135 187.384 33.3055C187.109 32.8991 186.752 32.5823 186.315 32.3599C185.88 32.1359 185.392 31.9855 184.85 31.9055C184.31 31.8271 183.787 31.7871 183.286 31.7871H179.682V38.2927H182.891C183.445 38.2927 184.013 38.2463 184.595 38.1535C185.174 38.0623 185.702 37.8975 186.179 37.6623C186.653 37.4255 187.043 37.0831 187.347 36.6367C187.65 36.1903 187.803 35.6111 187.803 34.9023Z" fill="black"/>
<mask id="mask0_10_4485" style="mask-type:alpha" maskUnits="userSpaceOnUse" x="198" y="25" width="31" height="31">
<path fill-rule="evenodd" clip-rule="evenodd" d="M198.484 25.5996H228.878V55.0075H198.484V25.5996Z" fill="black"/>
</mask>
<g mask="url(#mask0_10_4485)">
<path fill-rule="evenodd" clip-rule="evenodd" d="M228.878 40.1852C228.878 42.3932 228.497 44.4092 227.736 46.2364C226.972 48.0636 225.913 49.6268 224.561 50.9276C223.208 52.2284 221.598 53.2332 219.732 53.942C217.865 54.6524 215.843 55.0076 213.662 55.0076C211.48 55.0076 209.464 54.6524 207.611 53.942C205.758 53.2332 204.155 52.2284 202.801 50.9276C201.446 49.6268 200.388 48.0636 199.628 46.2364C198.865 44.4092 198.484 42.3932 198.484 40.1852C198.484 37.9516 198.865 35.934 199.628 34.134C200.388 32.334 201.446 30.8028 202.801 29.542C204.155 28.2796 205.758 27.3084 207.611 26.6236C209.464 25.942 211.48 25.5996 213.662 25.5996C215.843 25.5996 217.865 25.942 219.732 26.6236C221.598 27.3084 223.208 28.2796 224.561 29.542C225.913 30.8028 226.972 32.334 227.736 34.134C228.497 35.934 228.878 37.9516 228.878 40.1852ZM221.664 40.1851C221.664 38.9771 221.467 37.8459 221.074 36.7947C220.678 35.7435 220.133 34.8443 219.437 34.0939C218.741 33.3451 217.901 32.7547 216.912 32.3211C215.926 31.8875 214.845 31.6699 213.662 31.6699C212.48 31.6699 211.402 31.8875 210.43 32.3211C209.456 32.7547 208.616 33.3451 207.907 34.0939C207.197 34.8443 206.65 35.7435 206.27 36.7947C205.89 37.8459 205.699 38.9771 205.699 40.1851C205.699 41.4459 205.896 42.6091 206.291 43.6731C206.685 44.7371 207.23 45.6523 207.925 46.4139C208.622 47.1755 209.456 47.7739 210.43 48.2075C211.402 48.6411 212.48 48.8571 213.662 48.8571C214.845 48.8571 215.92 48.6411 216.894 48.2075C217.866 47.7739 218.707 47.1755 219.418 46.4139C220.126 45.6523 220.678 44.7371 221.074 43.6731C221.467 42.6091 221.664 41.4459 221.664 40.1851Z" fill="black"/>
</g>
<path fill-rule="evenodd" clip-rule="evenodd" d="M234.316 54.2581V26.3477H241.097V48.3845H251.899V54.2581H234.316Z" fill="black"/>
<mask id="mask1_10_4485" style="mask-type:alpha" maskUnits="userSpaceOnUse" x="0" y="25" width="328" height="31">
<path fill-rule="evenodd" clip-rule="evenodd" d="M0 55.0076H327.586V25.5996H0V55.0076Z" fill="black"/>
</mask>
<g mask="url(#mask1_10_4485)">
<path fill-rule="evenodd" clip-rule="evenodd" d="M256.391 54.259H263.171V26.3486H256.391V54.259Z" fill="black"/>
<path fill-rule="evenodd" clip-rule="evenodd" d="M287.849 54.2581L276.613 36.0069H276.495L276.653 54.2581H270.109V26.3477H277.796L288.991 44.5605H289.109L288.951 26.3477H295.495V54.2581H287.849Z" fill="black"/>
<path fill-rule="evenodd" clip-rule="evenodd" d="M319.266 54.2581L313.157 44.4037L307.282 54.2581H299.24L309.016 39.5141L300.031 26.3477H308.149L313.355 35.0213L318.477 26.3477H326.322L317.493 39.5141L327.584 54.2581H319.266Z" fill="black"/>
<path fill-rule="evenodd" clip-rule="evenodd" d="M71.8544 54.2576H47.6816C46.6784 54.2576 45.736 53.8672 45.0272 53.1584L25.3072 33.4384L16.4224 42.3232C15.7136 43.032 14.7712 43.4224 13.768 43.4224H0V37.3424H12.76L22.6528 27.4496C24.1168 25.9856 26.4976 25.9856 27.9632 27.4496L48.6272 48.176H71.8544V54.2576Z" fill="black"/>
<path fill-rule="evenodd" clip-rule="evenodd" d="M24.1824 54.2576H0V48.176H23.2368L43.9024 27.4496C45.3664 25.9856 47.7472 25.9856 49.2128 27.4496L59.1056 37.3424H71.8544V43.424H58.0976C57.0928 43.424 56.1488 43.032 55.44 42.3216L46.5568 33.4384L26.8384 53.1584C26.128 53.8672 25.1856 54.2576 24.1824 54.2576Z" fill="black"/>
</g>
</svg>
